<mxfile host="app.diagrams.net" modified="2021-01-17T04:23:31.579Z" agent="5.0 (Windows)" etag="hS6ddJJbNQr542GDTmHt" version="14.2.3" type="github">
  <diagram id="E52MmVwpF91qKEDKbdTn" name="Page-1">
    <mxGraphModel dx="2162" dy="737" grid="1" gridSize="10" guides="1" tooltips="1" connect="1" arrows="1" fold="1" page="1" pageScale="1" pageWidth="850" pageHeight="1100" math="0" shadow="0">
      <root>
        <mxCell id="0" />
        <mxCell id="1" parent="0" />
        <mxCell id="ZpuD7SG0wU9qkFbI6m0f-9" style="edgeStyle=orthogonalEdgeStyle;rounded=0;orthogonalLoop=1;jettySize=auto;html=1;entryX=0.175;entryY=0.25;entryDx=0;entryDy=0;entryPerimeter=0;exitX=1;exitY=0.5;exitDx=0;exitDy=0;exitPerimeter=0;strokeWidth=2;" parent="1" source="ZpuD7SG0wU9qkFbI6m0f-6" target="ZpuD7SG0wU9qkFbI6m0f-7" edge="1">
          <mxGeometry relative="1" as="geometry">
            <Array as="points">
              <mxPoint x="330" y="540" />
              <mxPoint x="330" y="440" />
              <mxPoint x="110" y="440" />
              <mxPoint x="110" y="480" />
            </Array>
          </mxGeometry>
        </mxCell>
        <mxCell id="ZpuD7SG0wU9qkFbI6m0f-16" style="edgeStyle=orthogonalEdgeStyle;rounded=0;orthogonalLoop=1;jettySize=auto;html=1;strokeWidth=2;endArrow=block;endFill=1;" parent="1" source="ZpuD7SG0wU9qkFbI6m0f-6" edge="1">
          <mxGeometry relative="1" as="geometry">
            <mxPoint x="370" y="540" as="targetPoint" />
          </mxGeometry>
        </mxCell>
        <mxCell id="ZpuD7SG0wU9qkFbI6m0f-6" value="" style="shape=or;whiteSpace=wrap;html=1;strokeWidth=2;" parent="1" vertex="1">
          <mxGeometry x="250" y="500" width="60" height="80" as="geometry" />
        </mxCell>
        <mxCell id="ZpuD7SG0wU9qkFbI6m0f-11" style="edgeStyle=orthogonalEdgeStyle;rounded=0;orthogonalLoop=1;jettySize=auto;html=1;entryX=0;entryY=0.25;entryDx=0;entryDy=0;entryPerimeter=0;strokeWidth=2;endArrow=block;endFill=1;" parent="1" source="ZpuD7SG0wU9qkFbI6m0f-7" target="ZpuD7SG0wU9qkFbI6m0f-6" edge="1">
          <mxGeometry relative="1" as="geometry">
            <Array as="points">
              <mxPoint x="230" y="500" />
              <mxPoint x="230" y="520" />
            </Array>
          </mxGeometry>
        </mxCell>
        <mxCell id="ZpuD7SG0wU9qkFbI6m0f-7" value="" style="shape=xor;whiteSpace=wrap;html=1;strokeWidth=2;" parent="1" vertex="1">
          <mxGeometry x="130" y="460" width="60" height="80" as="geometry" />
        </mxCell>
        <mxCell id="ZpuD7SG0wU9qkFbI6m0f-10" style="edgeStyle=orthogonalEdgeStyle;rounded=0;orthogonalLoop=1;jettySize=auto;html=1;entryX=0;entryY=0.75;entryDx=0;entryDy=0;entryPerimeter=0;strokeWidth=2;endArrow=block;endFill=1;" parent="1" source="ZpuD7SG0wU9qkFbI6m0f-8" target="ZpuD7SG0wU9qkFbI6m0f-6" edge="1">
          <mxGeometry relative="1" as="geometry">
            <Array as="points">
              <mxPoint x="230" y="620" />
              <mxPoint x="230" y="560" />
            </Array>
          </mxGeometry>
        </mxCell>
        <mxCell id="ZpuD7SG0wU9qkFbI6m0f-8" value="" style="triangle;whiteSpace=wrap;html=1;strokeWidth=2;" parent="1" vertex="1">
          <mxGeometry x="130" y="580" width="60" height="80" as="geometry" />
        </mxCell>
        <mxCell id="ZpuD7SG0wU9qkFbI6m0f-12" value="" style="ellipse;whiteSpace=wrap;html=1;strokeWidth=2;" parent="1" vertex="1">
          <mxGeometry x="190" y="610" width="20" height="20" as="geometry" />
        </mxCell>
        <mxCell id="ZpuD7SG0wU9qkFbI6m0f-17" value="" style="endArrow=block;html=1;strokeWidth=2;endFill=1;" parent="1" edge="1">
          <mxGeometry width="50" height="50" relative="1" as="geometry">
            <mxPoint x="90" y="520" as="sourcePoint" />
            <mxPoint x="140" y="520" as="targetPoint" />
          </mxGeometry>
        </mxCell>
        <mxCell id="ZpuD7SG0wU9qkFbI6m0f-18" value="" style="endArrow=block;html=1;strokeWidth=2;endFill=1;" parent="1" edge="1">
          <mxGeometry width="50" height="50" relative="1" as="geometry">
            <mxPoint x="90" y="620" as="sourcePoint" />
            <mxPoint x="130" y="620" as="targetPoint" />
          </mxGeometry>
        </mxCell>
        <mxCell id="ZpuD7SG0wU9qkFbI6m0f-19" value="Direct" style="text;html=1;strokeColor=none;fillColor=none;align=center;verticalAlign=middle;whiteSpace=wrap;rounded=0;" parent="1" vertex="1">
          <mxGeometry x="190" y="480" width="40" height="20" as="geometry" />
        </mxCell>
        <mxCell id="ZpuD7SG0wU9qkFbI6m0f-20" value="&lt;div&gt;Indirect&lt;/div&gt;" style="text;html=1;strokeColor=none;fillColor=none;align=center;verticalAlign=middle;whiteSpace=wrap;rounded=0;" parent="1" vertex="1">
          <mxGeometry x="190" y="420" width="40" height="20" as="geometry" />
        </mxCell>
        <mxCell id="ZpuD7SG0wU9qkFbI6m0f-21" value="" style="triangle;whiteSpace=wrap;html=1;strokeWidth=2;" parent="1" vertex="1">
          <mxGeometry x="240" y="160" width="60" height="80" as="geometry" />
        </mxCell>
        <mxCell id="ZpuD7SG0wU9qkFbI6m0f-22" value="On Signal (input change)&lt;br&gt;&lt;div&gt;- Calculate output&lt;/div&gt;&lt;div&gt;On Output Change (calc)&lt;br&gt;&lt;/div&gt;&lt;div&gt;- Send signal Out&lt;/div&gt;" style="rounded=0;whiteSpace=wrap;html=1;strokeWidth=2;align=center;" parent="1" vertex="1">
          <mxGeometry x="80" y="160" width="160" height="80" as="geometry" />
        </mxCell>
        <mxCell id="ZpuD7SG0wU9qkFbI6m0f-23" value="" style="endArrow=classic;html=1;strokeWidth=2;" parent="1" edge="1">
          <mxGeometry width="50" height="50" relative="1" as="geometry">
            <mxPoint x="30" y="250" as="sourcePoint" />
            <mxPoint x="80" y="200" as="targetPoint" />
          </mxGeometry>
        </mxCell>
        <mxCell id="ZpuD7SG0wU9qkFbI6m0f-24" value="" style="endArrow=classic;html=1;strokeWidth=2;" parent="1" edge="1">
          <mxGeometry width="50" height="50" relative="1" as="geometry">
            <mxPoint x="300" y="200" as="sourcePoint" />
            <mxPoint x="350" y="150" as="targetPoint" />
          </mxGeometry>
        </mxCell>
        <mxCell id="ZpuD7SG0wU9qkFbI6m0f-26" value="" style="rounded=0;whiteSpace=wrap;html=1;strokeWidth=2;" parent="1" vertex="1">
          <mxGeometry x="440" y="160" width="280" height="280" as="geometry" />
        </mxCell>
        <mxCell id="ZpuD7SG0wU9qkFbI6m0f-34" style="edgeStyle=orthogonalEdgeStyle;rounded=1;orthogonalLoop=1;jettySize=auto;html=1;entryX=0;entryY=0.5;entryDx=0;entryDy=0;startArrow=none;startFill=0;endArrow=block;endFill=1;strokeWidth=2;" parent="1" source="ZpuD7SG0wU9qkFbI6m0f-27" target="ZpuD7SG0wU9qkFbI6m0f-28" edge="1">
          <mxGeometry relative="1" as="geometry">
            <Array as="points">
              <mxPoint x="520" y="300" />
            </Array>
          </mxGeometry>
        </mxCell>
        <mxCell id="ZpuD7SG0wU9qkFbI6m0f-35" style="edgeStyle=orthogonalEdgeStyle;rounded=1;orthogonalLoop=1;jettySize=auto;html=1;exitX=1;exitY=0.25;exitDx=0;exitDy=0;entryX=0;entryY=0.75;entryDx=0;entryDy=0;startArrow=none;startFill=0;endArrow=block;endFill=1;strokeWidth=2;" parent="1" source="ZpuD7SG0wU9qkFbI6m0f-27" target="ZpuD7SG0wU9qkFbI6m0f-29" edge="1">
          <mxGeometry relative="1" as="geometry">
            <Array as="points">
              <mxPoint x="510" y="290" />
              <mxPoint x="510" y="230" />
            </Array>
          </mxGeometry>
        </mxCell>
        <mxCell id="ZpuD7SG0wU9qkFbI6m0f-52" style="edgeStyle=orthogonalEdgeStyle;rounded=1;orthogonalLoop=1;jettySize=auto;html=1;exitX=1;exitY=0.75;exitDx=0;exitDy=0;entryX=0;entryY=0.25;entryDx=0;entryDy=0;startArrow=none;startFill=0;endArrow=block;endFill=1;strokeWidth=2;" parent="1" source="ZpuD7SG0wU9qkFbI6m0f-27" target="ZpuD7SG0wU9qkFbI6m0f-31" edge="1">
          <mxGeometry relative="1" as="geometry">
            <Array as="points">
              <mxPoint x="510" y="310" />
              <mxPoint x="510" y="360" />
            </Array>
          </mxGeometry>
        </mxCell>
        <mxCell id="ZpuD7SG0wU9qkFbI6m0f-27" value="&lt;div&gt;pass&lt;/div&gt;idle" style="rounded=0;whiteSpace=wrap;html=1;strokeWidth=2;" parent="1" vertex="1">
          <mxGeometry x="460" y="280" width="40" height="40" as="geometry" />
        </mxCell>
        <mxCell id="ZpuD7SG0wU9qkFbI6m0f-36" style="edgeStyle=orthogonalEdgeStyle;rounded=1;orthogonalLoop=1;jettySize=auto;html=1;entryX=0;entryY=0.75;entryDx=0;entryDy=0;startArrow=none;startFill=0;endArrow=block;endFill=1;strokeWidth=2;" parent="1" source="ZpuD7SG0wU9qkFbI6m0f-28" target="ZpuD7SG0wU9qkFbI6m0f-30" edge="1">
          <mxGeometry relative="1" as="geometry">
            <Array as="points">
              <mxPoint x="570" y="300" />
              <mxPoint x="570" y="240" />
            </Array>
          </mxGeometry>
        </mxCell>
        <mxCell id="ZpuD7SG0wU9qkFbI6m0f-28" value="&lt;div&gt;pass&lt;/div&gt;&lt;div&gt;idle&lt;/div&gt;" style="rounded=0;whiteSpace=wrap;html=1;strokeWidth=2;" parent="1" vertex="1">
          <mxGeometry x="520" y="280" width="40" height="40" as="geometry" />
        </mxCell>
        <mxCell id="ZpuD7SG0wU9qkFbI6m0f-37" style="edgeStyle=orthogonalEdgeStyle;rounded=0;orthogonalLoop=1;jettySize=auto;html=1;entryX=0;entryY=0.25;entryDx=0;entryDy=0;startArrow=none;startFill=0;endArrow=block;endFill=1;strokeWidth=2;fillColor=#f8cecc;strokeColor=#b85450;" parent="1" source="ZpuD7SG0wU9qkFbI6m0f-29" target="ZpuD7SG0wU9qkFbI6m0f-30" edge="1">
          <mxGeometry relative="1" as="geometry">
            <Array as="points">
              <mxPoint x="560" y="220" />
              <mxPoint x="560" y="220" />
            </Array>
          </mxGeometry>
        </mxCell>
        <mxCell id="ZpuD7SG0wU9qkFbI6m0f-29" value="&lt;div&gt;wait&lt;/div&gt;pass" style="rounded=0;whiteSpace=wrap;html=1;strokeWidth=2;" parent="1" vertex="1">
          <mxGeometry x="520" y="200" width="40" height="40" as="geometry" />
        </mxCell>
        <mxCell id="ZpuD7SG0wU9qkFbI6m0f-38" style="edgeStyle=orthogonalEdgeStyle;rounded=1;orthogonalLoop=1;jettySize=auto;html=1;entryX=0;entryY=0.25;entryDx=0;entryDy=0;startArrow=none;startFill=0;endArrow=block;endFill=1;strokeWidth=2;" parent="1" source="ZpuD7SG0wU9qkFbI6m0f-30" target="ZpuD7SG0wU9qkFbI6m0f-29" edge="1">
          <mxGeometry relative="1" as="geometry">
            <Array as="points">
              <mxPoint x="630" y="230" />
              <mxPoint x="630" y="180" />
              <mxPoint x="500" y="180" />
              <mxPoint x="500" y="210" />
            </Array>
          </mxGeometry>
        </mxCell>
        <mxCell id="ZpuD7SG0wU9qkFbI6m0f-39" style="edgeStyle=orthogonalEdgeStyle;rounded=1;orthogonalLoop=1;jettySize=auto;html=1;exitX=1;exitY=0.5;exitDx=0;exitDy=0;entryX=0;entryY=0.25;entryDx=0;entryDy=0;startArrow=none;startFill=0;endArrow=block;endFill=1;strokeWidth=2;" parent="1" source="ZpuD7SG0wU9qkFbI6m0f-30" target="ZpuD7SG0wU9qkFbI6m0f-33" edge="1">
          <mxGeometry relative="1" as="geometry">
            <Array as="points">
              <mxPoint x="630" y="230" />
              <mxPoint x="630" y="290" />
            </Array>
          </mxGeometry>
        </mxCell>
        <mxCell id="ZpuD7SG0wU9qkFbI6m0f-30" value="&lt;div&gt;wait&lt;/div&gt;&lt;div&gt;force&lt;/div&gt;" style="rounded=0;whiteSpace=wrap;html=1;strokeWidth=2;" parent="1" vertex="1">
          <mxGeometry x="580" y="210" width="40" height="40" as="geometry" />
        </mxCell>
        <mxCell id="ZpuD7SG0wU9qkFbI6m0f-54" style="edgeStyle=orthogonalEdgeStyle;rounded=1;orthogonalLoop=1;jettySize=auto;html=1;entryX=0;entryY=0.5;entryDx=0;entryDy=0;startArrow=none;startFill=0;endArrow=block;endFill=1;strokeWidth=2;" parent="1" source="ZpuD7SG0wU9qkFbI6m0f-31" target="ZpuD7SG0wU9qkFbI6m0f-32" edge="1">
          <mxGeometry relative="1" as="geometry">
            <Array as="points">
              <mxPoint x="570" y="370" />
              <mxPoint x="570" y="360" />
            </Array>
          </mxGeometry>
        </mxCell>
        <mxCell id="ZpuD7SG0wU9qkFbI6m0f-31" value="&lt;div&gt;wait&lt;/div&gt;force" style="rounded=0;whiteSpace=wrap;html=1;strokeWidth=2;" parent="1" vertex="1">
          <mxGeometry x="520" y="350" width="40" height="40" as="geometry" />
        </mxCell>
        <mxCell id="ZpuD7SG0wU9qkFbI6m0f-42" style="edgeStyle=orthogonalEdgeStyle;rounded=1;orthogonalLoop=1;jettySize=auto;html=1;entryX=0;entryY=0.75;entryDx=0;entryDy=0;startArrow=none;startFill=0;endArrow=block;endFill=1;strokeWidth=2;" parent="1" source="ZpuD7SG0wU9qkFbI6m0f-32" target="ZpuD7SG0wU9qkFbI6m0f-33" edge="1">
          <mxGeometry relative="1" as="geometry">
            <Array as="points">
              <mxPoint x="630" y="360" />
              <mxPoint x="630" y="310" />
            </Array>
          </mxGeometry>
        </mxCell>
        <mxCell id="ZpuD7SG0wU9qkFbI6m0f-55" style="edgeStyle=orthogonalEdgeStyle;rounded=1;orthogonalLoop=1;jettySize=auto;html=1;startArrow=none;startFill=0;endArrow=block;endFill=1;strokeWidth=2;fillColor=#f8cecc;strokeColor=#b85450;" parent="1" source="ZpuD7SG0wU9qkFbI6m0f-32" edge="1">
          <mxGeometry relative="1" as="geometry">
            <mxPoint x="520" y="380" as="targetPoint" />
            <Array as="points">
              <mxPoint x="630" y="360" />
              <mxPoint x="630" y="400" />
              <mxPoint x="510" y="400" />
              <mxPoint x="510" y="380" />
            </Array>
          </mxGeometry>
        </mxCell>
        <mxCell id="ZpuD7SG0wU9qkFbI6m0f-56" style="edgeStyle=orthogonalEdgeStyle;rounded=0;orthogonalLoop=1;jettySize=auto;html=1;exitX=1;exitY=0.5;exitDx=0;exitDy=0;startArrow=none;startFill=0;endArrow=block;endFill=1;strokeWidth=2;" parent="1" source="ZpuD7SG0wU9qkFbI6m0f-32" edge="1">
          <mxGeometry relative="1" as="geometry">
            <mxPoint x="740" y="360" as="targetPoint" />
          </mxGeometry>
        </mxCell>
        <mxCell id="ZpuD7SG0wU9qkFbI6m0f-32" value="&lt;div&gt;idle&lt;br&gt;&lt;/div&gt;&lt;div&gt;pass&lt;/div&gt;" style="rounded=0;whiteSpace=wrap;html=1;strokeWidth=2;" parent="1" vertex="1">
          <mxGeometry x="580" y="340" width="40" height="40" as="geometry" />
        </mxCell>
        <mxCell id="ZpuD7SG0wU9qkFbI6m0f-45" style="edgeStyle=orthogonalEdgeStyle;rounded=0;orthogonalLoop=1;jettySize=auto;html=1;exitX=1;exitY=0.5;exitDx=0;exitDy=0;startArrow=none;startFill=0;endArrow=block;endFill=1;strokeWidth=2;" parent="1" source="ZpuD7SG0wU9qkFbI6m0f-33" edge="1">
          <mxGeometry relative="1" as="geometry">
            <mxPoint x="740" y="300" as="targetPoint" />
          </mxGeometry>
        </mxCell>
        <mxCell id="ZpuD7SG0wU9qkFbI6m0f-33" value="idle&lt;br&gt;&lt;div&gt;pass&lt;/div&gt;" style="rounded=0;whiteSpace=wrap;html=1;strokeWidth=2;" parent="1" vertex="1">
          <mxGeometry x="640" y="280" width="40" height="40" as="geometry" />
        </mxCell>
        <mxCell id="ZpuD7SG0wU9qkFbI6m0f-47" value="" style="endArrow=classic;html=1;strokeWidth=2;entryX=0;entryY=0.5;entryDx=0;entryDy=0;" parent="1" target="ZpuD7SG0wU9qkFbI6m0f-27" edge="1">
          <mxGeometry width="50" height="50" relative="1" as="geometry">
            <mxPoint x="420" y="300" as="sourcePoint" />
            <mxPoint x="450" y="250" as="targetPoint" />
          </mxGeometry>
        </mxCell>
        <mxCell id="ZpuD7SG0wU9qkFbI6m0f-58" value="&lt;div&gt;Step through every Active node&lt;/div&gt;&lt;div&gt;- Calculate or push to Wait&lt;/div&gt;&lt;div&gt;- Pass signal downwards from calculated&lt;/div&gt;&lt;div&gt;&amp;nbsp; - &quot;Recursive&quot; Branching&lt;br&gt;&lt;/div&gt;&lt;div&gt;&lt;br&gt;&lt;/div&gt;&lt;div&gt;Step through Wait queue while not empty&lt;br&gt;&lt;/div&gt;&lt;div&gt;- Force-calculate first in list&lt;/div&gt;&lt;div&gt;- Pass signal downwards&lt;/div&gt;&lt;div&gt;&amp;nbsp; - If was waiting, de-list&lt;/div&gt;&lt;div&gt;&amp;nbsp; - Calculate or push to Wait&lt;br&gt;&lt;/div&gt;" style="rounded=0;whiteSpace=wrap;html=1;strokeWidth=2;align=left;" parent="1" vertex="1">
          <mxGeometry x="440" y="440" width="280" height="160" as="geometry" />
        </mxCell>
        <mxCell id="ZpuD7SG0wU9qkFbI6m0f-59" value="(invoke active next step)" style="text;html=1;strokeColor=none;fillColor=none;align=center;verticalAlign=middle;whiteSpace=wrap;rounded=0;" parent="1" vertex="1">
          <mxGeometry x="470" y="400" width="200" height="20" as="geometry" />
        </mxCell>
        <mxCell id="ZpuD7SG0wU9qkFbI6m0f-61" value="ChipModule" style="rounded=1;whiteSpace=wrap;html=1;strokeWidth=2;" parent="1" vertex="1">
          <mxGeometry x="-480" y="120" width="120" height="60" as="geometry" />
        </mxCell>
        <mxCell id="ZpuD7SG0wU9qkFbI6m0f-73" style="edgeStyle=orthogonalEdgeStyle;rounded=1;orthogonalLoop=1;jettySize=auto;html=1;entryX=0;entryY=0.5;entryDx=0;entryDy=0;startArrow=none;startFill=0;endArrow=block;endFill=1;strokeWidth=2;" parent="1" source="ZpuD7SG0wU9qkFbI6m0f-62" target="ZpuD7SG0wU9qkFbI6m0f-65" edge="1">
          <mxGeometry relative="1" as="geometry">
            <Array as="points">
              <mxPoint x="-620" y="210" />
            </Array>
          </mxGeometry>
        </mxCell>
        <mxCell id="ZpuD7SG0wU9qkFbI6m0f-74" style="edgeStyle=orthogonalEdgeStyle;rounded=1;orthogonalLoop=1;jettySize=auto;html=1;entryX=0;entryY=0.5;entryDx=0;entryDy=0;startArrow=none;startFill=0;endArrow=block;endFill=1;strokeWidth=2;" parent="1" source="ZpuD7SG0wU9qkFbI6m0f-62" target="ZpuD7SG0wU9qkFbI6m0f-66" edge="1">
          <mxGeometry relative="1" as="geometry">
            <Array as="points">
              <mxPoint x="-620" y="250" />
            </Array>
          </mxGeometry>
        </mxCell>
        <mxCell id="ZpuD7SG0wU9qkFbI6m0f-75" style="edgeStyle=orthogonalEdgeStyle;rounded=1;orthogonalLoop=1;jettySize=auto;html=1;entryX=0;entryY=0.5;entryDx=0;entryDy=0;startArrow=none;startFill=0;endArrow=block;endFill=1;strokeWidth=2;" parent="1" source="ZpuD7SG0wU9qkFbI6m0f-62" target="ZpuD7SG0wU9qkFbI6m0f-67" edge="1">
          <mxGeometry relative="1" as="geometry">
            <Array as="points">
              <mxPoint x="-620" y="290" />
            </Array>
          </mxGeometry>
        </mxCell>
        <mxCell id="ZpuD7SG0wU9qkFbI6m0f-76" style="edgeStyle=orthogonalEdgeStyle;rounded=1;orthogonalLoop=1;jettySize=auto;html=1;entryX=0;entryY=0.5;entryDx=0;entryDy=0;startArrow=none;startFill=0;endArrow=block;endFill=1;strokeWidth=2;" parent="1" source="ZpuD7SG0wU9qkFbI6m0f-62" target="ZpuD7SG0wU9qkFbI6m0f-68" edge="1">
          <mxGeometry relative="1" as="geometry">
            <Array as="points">
              <mxPoint x="-620" y="330" />
            </Array>
          </mxGeometry>
        </mxCell>
        <mxCell id="ZpuD7SG0wU9qkFbI6m0f-77" style="edgeStyle=orthogonalEdgeStyle;rounded=1;orthogonalLoop=1;jettySize=auto;html=1;entryX=0;entryY=0.5;entryDx=0;entryDy=0;startArrow=none;startFill=0;endArrow=block;endFill=1;strokeWidth=2;" parent="1" source="ZpuD7SG0wU9qkFbI6m0f-62" target="ZpuD7SG0wU9qkFbI6m0f-69" edge="1">
          <mxGeometry relative="1" as="geometry">
            <Array as="points">
              <mxPoint x="-620" y="370" />
            </Array>
          </mxGeometry>
        </mxCell>
        <mxCell id="ZpuD7SG0wU9qkFbI6m0f-78" style="edgeStyle=orthogonalEdgeStyle;rounded=1;orthogonalLoop=1;jettySize=auto;html=1;entryX=0;entryY=0.5;entryDx=0;entryDy=0;startArrow=none;startFill=0;endArrow=block;endFill=1;strokeWidth=2;" parent="1" source="ZpuD7SG0wU9qkFbI6m0f-62" target="ZpuD7SG0wU9qkFbI6m0f-70" edge="1">
          <mxGeometry relative="1" as="geometry">
            <Array as="points">
              <mxPoint x="-620" y="410" />
            </Array>
          </mxGeometry>
        </mxCell>
        <mxCell id="ZpuD7SG0wU9qkFbI6m0f-79" style="edgeStyle=orthogonalEdgeStyle;rounded=1;orthogonalLoop=1;jettySize=auto;html=1;entryX=0;entryY=0.5;entryDx=0;entryDy=0;startArrow=none;startFill=0;endArrow=block;endFill=1;strokeWidth=2;" parent="1" source="ZpuD7SG0wU9qkFbI6m0f-62" target="ZpuD7SG0wU9qkFbI6m0f-72" edge="1">
          <mxGeometry relative="1" as="geometry">
            <Array as="points">
              <mxPoint x="-620" y="450" />
            </Array>
          </mxGeometry>
        </mxCell>
        <mxCell id="sQ7jSc39O0Ix88ieAijf-9" style="edgeStyle=orthogonalEdgeStyle;rounded=1;orthogonalLoop=1;jettySize=auto;html=1;entryX=0;entryY=0.5;entryDx=0;entryDy=0;startArrow=none;startFill=0;endArrow=block;endFill=1;strokeWidth=2;fontSize=12;" edge="1" parent="1" source="ZpuD7SG0wU9qkFbI6m0f-62" target="sQ7jSc39O0Ix88ieAijf-8">
          <mxGeometry relative="1" as="geometry">
            <Array as="points">
              <mxPoint x="-620" y="490" />
            </Array>
          </mxGeometry>
        </mxCell>
        <mxCell id="ZpuD7SG0wU9qkFbI6m0f-62" value="&lt;div&gt;LogicNode&lt;/div&gt;" style="rounded=1;whiteSpace=wrap;html=1;strokeWidth=2;" parent="1" vertex="1">
          <mxGeometry x="-640" y="120" width="120" height="60" as="geometry" />
        </mxCell>
        <mxCell id="ZpuD7SG0wU9qkFbI6m0f-64" value="LogicManager" style="rounded=1;whiteSpace=wrap;html=1;strokeWidth=2;" parent="1" vertex="1">
          <mxGeometry x="-800" y="120" width="120" height="60" as="geometry" />
        </mxCell>
        <mxCell id="ZpuD7SG0wU9qkFbI6m0f-65" value="&lt;div&gt;AND&lt;/div&gt;" style="rounded=1;whiteSpace=wrap;html=1;strokeWidth=2;" parent="1" vertex="1">
          <mxGeometry x="-600" y="200" width="80" height="20" as="geometry" />
        </mxCell>
        <mxCell id="ZpuD7SG0wU9qkFbI6m0f-66" value="OR" style="rounded=1;whiteSpace=wrap;html=1;strokeWidth=2;" parent="1" vertex="1">
          <mxGeometry x="-600" y="240" width="80" height="20" as="geometry" />
        </mxCell>
        <mxCell id="ZpuD7SG0wU9qkFbI6m0f-67" value="NOT" style="rounded=1;whiteSpace=wrap;html=1;strokeWidth=2;" parent="1" vertex="1">
          <mxGeometry x="-600" y="280" width="80" height="20" as="geometry" />
        </mxCell>
        <mxCell id="ZpuD7SG0wU9qkFbI6m0f-68" value="NOR" style="rounded=1;whiteSpace=wrap;html=1;strokeWidth=2;" parent="1" vertex="1">
          <mxGeometry x="-600" y="320" width="80" height="20" as="geometry" />
        </mxCell>
        <mxCell id="ZpuD7SG0wU9qkFbI6m0f-69" value="LATCH" style="rounded=1;whiteSpace=wrap;html=1;strokeWidth=2;" parent="1" vertex="1">
          <mxGeometry x="-600" y="360" width="80" height="20" as="geometry" />
        </mxCell>
        <mxCell id="ZpuD7SG0wU9qkFbI6m0f-70" value="INPUTSTICK" style="rounded=1;whiteSpace=wrap;html=1;strokeWidth=2;" parent="1" vertex="1">
          <mxGeometry x="-600" y="400" width="80" height="20" as="geometry" />
        </mxCell>
        <mxCell id="ZpuD7SG0wU9qkFbI6m0f-72" value="INPUTBTTN" style="rounded=1;whiteSpace=wrap;html=1;strokeWidth=2;" parent="1" vertex="1">
          <mxGeometry x="-600" y="440" width="80" height="20" as="geometry" />
        </mxCell>
        <mxCell id="ZpuD7SG0wU9qkFbI6m0f-80" value="&lt;div&gt;LastCycle&lt;/div&gt;&lt;div&gt;ActiveChangePending&lt;/div&gt;&lt;div&gt;IsWaiting&lt;/div&gt;&lt;div&gt;InputsReceivedThisCycle&lt;br&gt;&lt;/div&gt;" style="rounded=0;whiteSpace=wrap;html=1;strokeWidth=2;" parent="1" vertex="1">
          <mxGeometry x="-660" y="40" width="160" height="60" as="geometry" />
        </mxCell>
        <mxCell id="ZpuD7SG0wU9qkFbI6m0f-81" value="&lt;div style=&quot;font-size: 9px&quot;&gt;&lt;font style=&quot;font-size: 9px&quot;&gt;On Signal&lt;/font&gt;&lt;/div&gt;&lt;div style=&quot;font-size: 9px&quot;&gt;&lt;font style=&quot;font-size: 9px&quot;&gt;- If all signals set:&lt;/font&gt;&lt;/div&gt;&lt;div style=&quot;font-size: 9px&quot;&gt;&lt;font style=&quot;font-size: 9px&quot;&gt;-- If didn&#39;t calculate yet:&lt;br&gt;&lt;/font&gt;&lt;/div&gt;&lt;div style=&quot;font-size: 9px&quot;&gt;&lt;font style=&quot;font-size: 9px&quot;&gt;--- Calculate (&amp;amp; remove from Wait)&lt;br&gt;&lt;/font&gt;&lt;/div&gt;&lt;div style=&quot;font-size: 9px&quot;&gt;&lt;font style=&quot;font-size: 9px&quot;&gt;--- Else, add to Active&lt;br&gt;&lt;/font&gt;&lt;/div&gt;&lt;div style=&quot;font-size: 9px&quot;&gt;&lt;font style=&quot;font-size: 9px&quot;&gt;- Else, add to Wait&lt;/font&gt;&lt;/div&gt;&lt;div style=&quot;font-size: 9px&quot;&gt;&lt;font style=&quot;font-size: 9px&quot;&gt;On Wait&lt;/font&gt;&lt;/div&gt;&lt;div style=&quot;font-size: 9px&quot;&gt;&lt;font style=&quot;font-size: 9px&quot;&gt;- Force Calculate with saved inputs&lt;br&gt;&lt;/font&gt;&lt;/div&gt;&lt;div style=&quot;font-size: 9px&quot;&gt;&lt;font style=&quot;font-size: 9px&quot;&gt;On Output Change&lt;/font&gt;&lt;/div&gt;&lt;div style=&quot;font-size: 9px&quot;&gt;&lt;font style=&quot;font-size: 9px&quot;&gt;- Signal affected nodes&lt;br&gt;&lt;/font&gt;&lt;/div&gt;" style="rounded=0;whiteSpace=wrap;html=1;strokeWidth=2;align=left;fontSize=8;" parent="1" vertex="1">
          <mxGeometry x="80" y="260" width="160" height="120" as="geometry" />
        </mxCell>
        <mxCell id="ZpuD7SG0wU9qkFbI6m0f-82" value="" style="endArrow=classic;html=1;strokeWidth=2;" parent="1" edge="1">
          <mxGeometry width="50" height="50" relative="1" as="geometry">
            <mxPoint x="30" y="390" as="sourcePoint" />
            <mxPoint x="80" y="340" as="targetPoint" />
          </mxGeometry>
        </mxCell>
        <mxCell id="ZpuD7SG0wU9qkFbI6m0f-83" value="" style="endArrow=classic;html=1;strokeWidth=2;" parent="1" edge="1">
          <mxGeometry width="50" height="50" relative="1" as="geometry">
            <mxPoint x="30" y="350" as="sourcePoint" />
            <mxPoint x="80" y="300" as="targetPoint" />
          </mxGeometry>
        </mxCell>
        <mxCell id="ZpuD7SG0wU9qkFbI6m0f-84" value="" style="endArrow=classic;html=1;strokeWidth=2;" parent="1" edge="1">
          <mxGeometry width="50" height="50" relative="1" as="geometry">
            <mxPoint x="300" y="320" as="sourcePoint" />
            <mxPoint x="350" y="270" as="targetPoint" />
          </mxGeometry>
        </mxCell>
        <mxCell id="ZpuD7SG0wU9qkFbI6m0f-85" value="" style="triangle;whiteSpace=wrap;html=1;strokeWidth=2;" parent="1" vertex="1">
          <mxGeometry x="240" y="260" width="60" height="120" as="geometry" />
        </mxCell>
        <mxCell id="sQ7jSc39O0Ix88ieAijf-7" value="&lt;div&gt;Active List...&lt;/div&gt;&lt;div&gt;Wait List...&lt;/div&gt;&lt;div&gt;...&lt;/div&gt;&lt;div&gt;Wait-N List...&lt;br&gt;&lt;/div&gt;" style="rounded=0;whiteSpace=wrap;html=1;strokeWidth=2;fontSize=12;align=center;" vertex="1" parent="1">
          <mxGeometry x="440" y="100" width="120" height="60" as="geometry" />
        </mxCell>
        <mxCell id="sQ7jSc39O0Ix88ieAijf-8" value="CNSTVALUE" style="rounded=1;whiteSpace=wrap;html=1;strokeWidth=2;" vertex="1" parent="1">
          <mxGeometry x="-600" y="480" width="80" height="20" as="geometry" />
        </mxCell>
        <mxCell id="sQ7jSc39O0Ix88ieAijf-10" value="" style="rounded=0;whiteSpace=wrap;html=1;strokeWidth=2;" vertex="1" parent="1">
          <mxGeometry x="440" y="680" width="280" height="280" as="geometry" />
        </mxCell>
        <mxCell id="sQ7jSc39O0Ix88ieAijf-11" style="edgeStyle=orthogonalEdgeStyle;rounded=1;orthogonalLoop=1;jettySize=auto;html=1;entryX=0;entryY=0.5;entryDx=0;entryDy=0;startArrow=none;startFill=0;endArrow=block;endFill=1;strokeWidth=2;" edge="1" parent="1" source="sQ7jSc39O0Ix88ieAijf-14" target="sQ7jSc39O0Ix88ieAijf-16">
          <mxGeometry relative="1" as="geometry">
            <Array as="points">
              <mxPoint x="520" y="820" />
            </Array>
          </mxGeometry>
        </mxCell>
        <mxCell id="sQ7jSc39O0Ix88ieAijf-12" style="edgeStyle=orthogonalEdgeStyle;rounded=1;orthogonalLoop=1;jettySize=auto;html=1;exitX=1;exitY=0.25;exitDx=0;exitDy=0;entryX=0;entryY=0.75;entryDx=0;entryDy=0;startArrow=none;startFill=0;endArrow=block;endFill=1;strokeWidth=2;" edge="1" parent="1" source="sQ7jSc39O0Ix88ieAijf-14" target="sQ7jSc39O0Ix88ieAijf-18">
          <mxGeometry relative="1" as="geometry">
            <Array as="points">
              <mxPoint x="510" y="810" />
              <mxPoint x="510" y="750" />
            </Array>
          </mxGeometry>
        </mxCell>
        <mxCell id="sQ7jSc39O0Ix88ieAijf-13" style="edgeStyle=orthogonalEdgeStyle;rounded=1;orthogonalLoop=1;jettySize=auto;html=1;exitX=1;exitY=0.75;exitDx=0;exitDy=0;entryX=0;entryY=0.25;entryDx=0;entryDy=0;startArrow=none;startFill=0;endArrow=block;endFill=1;strokeWidth=2;" edge="1" parent="1" source="sQ7jSc39O0Ix88ieAijf-14" target="sQ7jSc39O0Ix88ieAijf-23">
          <mxGeometry relative="1" as="geometry">
            <Array as="points">
              <mxPoint x="510" y="830" />
              <mxPoint x="510" y="880" />
            </Array>
          </mxGeometry>
        </mxCell>
        <mxCell id="sQ7jSc39O0Ix88ieAijf-14" value="0" style="rounded=0;whiteSpace=wrap;html=1;strokeWidth=2;" vertex="1" parent="1">
          <mxGeometry x="460" y="800" width="40" height="40" as="geometry" />
        </mxCell>
        <mxCell id="sQ7jSc39O0Ix88ieAijf-15" style="edgeStyle=orthogonalEdgeStyle;rounded=1;orthogonalLoop=1;jettySize=auto;html=1;entryX=0;entryY=0.75;entryDx=0;entryDy=0;startArrow=none;startFill=0;endArrow=block;endFill=1;strokeWidth=2;" edge="1" parent="1" source="sQ7jSc39O0Ix88ieAijf-16" target="sQ7jSc39O0Ix88ieAijf-21">
          <mxGeometry relative="1" as="geometry">
            <Array as="points">
              <mxPoint x="570" y="820" />
              <mxPoint x="570" y="760" />
            </Array>
          </mxGeometry>
        </mxCell>
        <mxCell id="sQ7jSc39O0Ix88ieAijf-16" value="1" style="rounded=0;whiteSpace=wrap;html=1;strokeWidth=2;" vertex="1" parent="1">
          <mxGeometry x="520" y="800" width="40" height="40" as="geometry" />
        </mxCell>
        <mxCell id="sQ7jSc39O0Ix88ieAijf-17" style="edgeStyle=orthogonalEdgeStyle;rounded=0;orthogonalLoop=1;jettySize=auto;html=1;entryX=0;entryY=0.25;entryDx=0;entryDy=0;startArrow=none;startFill=0;endArrow=block;endFill=1;strokeWidth=2;fillColor=#f8cecc;strokeColor=#b85450;" edge="1" parent="1" source="sQ7jSc39O0Ix88ieAijf-18" target="sQ7jSc39O0Ix88ieAijf-21">
          <mxGeometry relative="1" as="geometry">
            <Array as="points">
              <mxPoint x="560" y="740" />
              <mxPoint x="560" y="740" />
            </Array>
          </mxGeometry>
        </mxCell>
        <mxCell id="sQ7jSc39O0Ix88ieAijf-18" value="1" style="rounded=0;whiteSpace=wrap;html=1;strokeWidth=2;" vertex="1" parent="1">
          <mxGeometry x="520" y="720" width="40" height="40" as="geometry" />
        </mxCell>
        <mxCell id="sQ7jSc39O0Ix88ieAijf-19" style="edgeStyle=orthogonalEdgeStyle;rounded=1;orthogonalLoop=1;jettySize=auto;html=1;entryX=0;entryY=0.25;entryDx=0;entryDy=0;startArrow=none;startFill=0;endArrow=block;endFill=1;strokeWidth=2;" edge="1" parent="1" source="sQ7jSc39O0Ix88ieAijf-21" target="sQ7jSc39O0Ix88ieAijf-18">
          <mxGeometry relative="1" as="geometry">
            <Array as="points">
              <mxPoint x="630" y="750" />
              <mxPoint x="630" y="700" />
              <mxPoint x="500" y="700" />
              <mxPoint x="500" y="730" />
            </Array>
          </mxGeometry>
        </mxCell>
        <mxCell id="sQ7jSc39O0Ix88ieAijf-20" style="edgeStyle=orthogonalEdgeStyle;rounded=1;orthogonalLoop=1;jettySize=auto;html=1;exitX=1;exitY=0.5;exitDx=0;exitDy=0;entryX=0;entryY=0.25;entryDx=0;entryDy=0;startArrow=none;startFill=0;endArrow=block;endFill=1;strokeWidth=2;" edge="1" parent="1" source="sQ7jSc39O0Ix88ieAijf-21" target="sQ7jSc39O0Ix88ieAijf-29">
          <mxGeometry relative="1" as="geometry">
            <Array as="points">
              <mxPoint x="630" y="750" />
              <mxPoint x="630" y="810" />
            </Array>
          </mxGeometry>
        </mxCell>
        <mxCell id="sQ7jSc39O0Ix88ieAijf-21" value="2" style="rounded=0;whiteSpace=wrap;html=1;strokeWidth=2;" vertex="1" parent="1">
          <mxGeometry x="580" y="730" width="40" height="40" as="geometry" />
        </mxCell>
        <mxCell id="sQ7jSc39O0Ix88ieAijf-22" style="edgeStyle=orthogonalEdgeStyle;rounded=1;orthogonalLoop=1;jettySize=auto;html=1;entryX=0;entryY=0.5;entryDx=0;entryDy=0;startArrow=none;startFill=0;endArrow=block;endFill=1;strokeWidth=2;" edge="1" parent="1" source="sQ7jSc39O0Ix88ieAijf-23" target="sQ7jSc39O0Ix88ieAijf-27">
          <mxGeometry relative="1" as="geometry">
            <Array as="points">
              <mxPoint x="570" y="890" />
              <mxPoint x="570" y="880" />
            </Array>
          </mxGeometry>
        </mxCell>
        <mxCell id="sQ7jSc39O0Ix88ieAijf-23" value="1" style="rounded=0;whiteSpace=wrap;html=1;strokeWidth=2;" vertex="1" parent="1">
          <mxGeometry x="520" y="870" width="40" height="40" as="geometry" />
        </mxCell>
        <mxCell id="sQ7jSc39O0Ix88ieAijf-24" style="edgeStyle=orthogonalEdgeStyle;rounded=1;orthogonalLoop=1;jettySize=auto;html=1;entryX=0;entryY=0.75;entryDx=0;entryDy=0;startArrow=none;startFill=0;endArrow=block;endFill=1;strokeWidth=2;" edge="1" parent="1" source="sQ7jSc39O0Ix88ieAijf-27" target="sQ7jSc39O0Ix88ieAijf-29">
          <mxGeometry relative="1" as="geometry">
            <Array as="points">
              <mxPoint x="630" y="880" />
              <mxPoint x="630" y="830" />
            </Array>
          </mxGeometry>
        </mxCell>
        <mxCell id="sQ7jSc39O0Ix88ieAijf-25" style="edgeStyle=orthogonalEdgeStyle;rounded=1;orthogonalLoop=1;jettySize=auto;html=1;startArrow=none;startFill=0;endArrow=block;endFill=1;strokeWidth=2;fillColor=#f8cecc;strokeColor=#b85450;" edge="1" parent="1" source="sQ7jSc39O0Ix88ieAijf-27">
          <mxGeometry relative="1" as="geometry">
            <mxPoint x="520" y="900" as="targetPoint" />
            <Array as="points">
              <mxPoint x="630" y="880" />
              <mxPoint x="630" y="920" />
              <mxPoint x="510" y="920" />
              <mxPoint x="510" y="900" />
            </Array>
          </mxGeometry>
        </mxCell>
        <mxCell id="sQ7jSc39O0Ix88ieAijf-26" style="edgeStyle=orthogonalEdgeStyle;rounded=0;orthogonalLoop=1;jettySize=auto;html=1;exitX=1;exitY=0.5;exitDx=0;exitDy=0;startArrow=none;startFill=0;endArrow=block;endFill=1;strokeWidth=2;" edge="1" parent="1" source="sQ7jSc39O0Ix88ieAijf-27">
          <mxGeometry relative="1" as="geometry">
            <mxPoint x="740" y="880" as="targetPoint" />
          </mxGeometry>
        </mxCell>
        <mxCell id="sQ7jSc39O0Ix88ieAijf-27" value="2" style="rounded=0;whiteSpace=wrap;html=1;strokeWidth=2;" vertex="1" parent="1">
          <mxGeometry x="580" y="860" width="40" height="40" as="geometry" />
        </mxCell>
        <mxCell id="sQ7jSc39O0Ix88ieAijf-28" style="edgeStyle=orthogonalEdgeStyle;rounded=0;orthogonalLoop=1;jettySize=auto;html=1;exitX=1;exitY=0.5;exitDx=0;exitDy=0;startArrow=none;startFill=0;endArrow=block;endFill=1;strokeWidth=2;" edge="1" parent="1" source="sQ7jSc39O0Ix88ieAijf-29">
          <mxGeometry relative="1" as="geometry">
            <mxPoint x="740" y="820" as="targetPoint" />
          </mxGeometry>
        </mxCell>
        <mxCell id="sQ7jSc39O0Ix88ieAijf-29" value="3" style="rounded=0;whiteSpace=wrap;html=1;strokeWidth=2;" vertex="1" parent="1">
          <mxGeometry x="640" y="800" width="40" height="40" as="geometry" />
        </mxCell>
        <mxCell id="sQ7jSc39O0Ix88ieAijf-30" value="" style="endArrow=classic;html=1;strokeWidth=2;entryX=0;entryY=0.5;entryDx=0;entryDy=0;" edge="1" parent="1" target="sQ7jSc39O0Ix88ieAijf-14">
          <mxGeometry width="50" height="50" relative="1" as="geometry">
            <mxPoint x="420" y="820" as="sourcePoint" />
            <mxPoint x="450" y="770" as="targetPoint" />
          </mxGeometry>
        </mxCell>
        <mxCell id="sQ7jSc39O0Ix88ieAijf-31" value="(invoke active next step)" style="text;html=1;strokeColor=none;fillColor=none;align=center;verticalAlign=middle;whiteSpace=wrap;rounded=0;" vertex="1" parent="1">
          <mxGeometry x="470" y="920" width="200" height="20" as="geometry" />
        </mxCell>
        <mxCell id="sQ7jSc39O0Ix88ieAijf-32" value="" style="rounded=0;whiteSpace=wrap;html=1;strokeWidth=2;" vertex="1" parent="1">
          <mxGeometry x="80" y="720" width="280" height="240" as="geometry" />
        </mxCell>
        <mxCell id="sQ7jSc39O0Ix88ieAijf-37" style="edgeStyle=orthogonalEdgeStyle;rounded=1;orthogonalLoop=1;jettySize=auto;html=1;entryX=0;entryY=0.5;entryDx=0;entryDy=0;startArrow=none;startFill=0;endArrow=block;endFill=1;strokeWidth=2;fontSize=12;fillColor=#ffe6cc;strokeColor=#d79b00;" edge="1" parent="1" source="sQ7jSc39O0Ix88ieAijf-33" target="sQ7jSc39O0Ix88ieAijf-34">
          <mxGeometry relative="1" as="geometry">
            <Array as="points">
              <mxPoint x="190" y="860" />
              <mxPoint x="190" y="860" />
            </Array>
          </mxGeometry>
        </mxCell>
        <mxCell id="sQ7jSc39O0Ix88ieAijf-33" value="2" style="rounded=0;whiteSpace=wrap;html=1;strokeWidth=2;fontSize=12;align=center;" vertex="1" parent="1">
          <mxGeometry x="140" y="840" width="40" height="40" as="geometry" />
        </mxCell>
        <mxCell id="sQ7jSc39O0Ix88ieAijf-38" style="edgeStyle=orthogonalEdgeStyle;rounded=1;orthogonalLoop=1;jettySize=auto;html=1;entryX=0;entryY=0.25;entryDx=0;entryDy=0;startArrow=none;startFill=0;endArrow=block;endFill=1;strokeWidth=2;fontSize=12;fillColor=#f8cecc;strokeColor=#b85450;" edge="1" parent="1" source="sQ7jSc39O0Ix88ieAijf-34" target="sQ7jSc39O0Ix88ieAijf-35">
          <mxGeometry relative="1" as="geometry">
            <Array as="points">
              <mxPoint x="250" y="860" />
              <mxPoint x="250" y="850" />
            </Array>
          </mxGeometry>
        </mxCell>
        <mxCell id="sQ7jSc39O0Ix88ieAijf-34" value="3" style="rounded=0;whiteSpace=wrap;html=1;strokeWidth=2;fontSize=12;align=center;fillColor=#fff2cc;strokeColor=#d6b656;" vertex="1" parent="1">
          <mxGeometry x="200" y="840" width="40" height="40" as="geometry" />
        </mxCell>
        <mxCell id="sQ7jSc39O0Ix88ieAijf-39" style="edgeStyle=orthogonalEdgeStyle;rounded=1;orthogonalLoop=1;jettySize=auto;html=1;entryX=1;entryY=0.5;entryDx=0;entryDy=0;startArrow=none;startFill=0;endArrow=block;endFill=1;strokeWidth=2;fontSize=12;" edge="1" parent="1" source="sQ7jSc39O0Ix88ieAijf-35" target="sQ7jSc39O0Ix88ieAijf-36">
          <mxGeometry relative="1" as="geometry">
            <Array as="points">
              <mxPoint x="330" y="860" />
              <mxPoint x="330" y="800" />
            </Array>
          </mxGeometry>
        </mxCell>
        <mxCell id="sQ7jSc39O0Ix88ieAijf-43" style="edgeStyle=orthogonalEdgeStyle;rounded=1;orthogonalLoop=1;jettySize=auto;html=1;startArrow=none;startFill=0;endArrow=block;endFill=1;strokeWidth=2;fontSize=12;" edge="1" parent="1" source="sQ7jSc39O0Ix88ieAijf-35">
          <mxGeometry relative="1" as="geometry">
            <mxPoint x="380" y="860" as="targetPoint" />
          </mxGeometry>
        </mxCell>
        <mxCell id="sQ7jSc39O0Ix88ieAijf-35" value="0" style="rounded=0;whiteSpace=wrap;html=1;strokeWidth=2;fontSize=12;align=center;" vertex="1" parent="1">
          <mxGeometry x="280" y="840" width="40" height="40" as="geometry" />
        </mxCell>
        <mxCell id="sQ7jSc39O0Ix88ieAijf-40" style="edgeStyle=orthogonalEdgeStyle;rounded=1;orthogonalLoop=1;jettySize=auto;html=1;entryX=0;entryY=0.25;entryDx=0;entryDy=0;startArrow=none;startFill=0;endArrow=block;endFill=1;strokeWidth=2;fontSize=12;" edge="1" parent="1" source="sQ7jSc39O0Ix88ieAijf-36" target="sQ7jSc39O0Ix88ieAijf-33">
          <mxGeometry relative="1" as="geometry" />
        </mxCell>
        <mxCell id="sQ7jSc39O0Ix88ieAijf-36" value="1" style="rounded=0;whiteSpace=wrap;html=1;strokeWidth=2;fontSize=12;align=center;" vertex="1" parent="1">
          <mxGeometry x="200" y="780" width="40" height="40" as="geometry" />
        </mxCell>
        <mxCell id="sQ7jSc39O0Ix88ieAijf-41" value="" style="endArrow=classic;html=1;strokeWidth=2;entryX=0;entryY=0.75;entryDx=0;entryDy=0;" edge="1" parent="1" target="sQ7jSc39O0Ix88ieAijf-33">
          <mxGeometry width="50" height="50" relative="1" as="geometry">
            <mxPoint x="60" y="870" as="sourcePoint" />
            <mxPoint x="100" y="870" as="targetPoint" />
          </mxGeometry>
        </mxCell>
        <mxCell id="sQ7jSc39O0Ix88ieAijf-42" value="" style="endArrow=classic;html=1;strokeWidth=2;entryX=0;entryY=0.75;entryDx=0;entryDy=0;" edge="1" parent="1" target="sQ7jSc39O0Ix88ieAijf-35">
          <mxGeometry width="50" height="50" relative="1" as="geometry">
            <mxPoint x="60" y="900" as="sourcePoint" />
            <mxPoint x="140" y="900" as="targetPoint" />
            <Array as="points">
              <mxPoint x="260" y="900" />
              <mxPoint x="260" y="870" />
            </Array>
          </mxGeometry>
        </mxCell>
        <mxCell id="sQ7jSc39O0Ix88ieAijf-48" style="edgeStyle=orthogonalEdgeStyle;rounded=1;orthogonalLoop=1;jettySize=auto;html=1;entryX=0;entryY=0.5;entryDx=0;entryDy=0;startArrow=none;startFill=0;endArrow=block;endFill=1;strokeWidth=2;fontSize=12;" edge="1" parent="1" source="sQ7jSc39O0Ix88ieAijf-44" target="sQ7jSc39O0Ix88ieAijf-45">
          <mxGeometry relative="1" as="geometry">
            <Array as="points">
              <mxPoint x="120" y="1020" />
            </Array>
          </mxGeometry>
        </mxCell>
        <mxCell id="sQ7jSc39O0Ix88ieAijf-49" style="edgeStyle=orthogonalEdgeStyle;rounded=1;orthogonalLoop=1;jettySize=auto;html=1;entryX=0;entryY=0.5;entryDx=0;entryDy=0;startArrow=none;startFill=0;endArrow=block;endFill=1;strokeWidth=2;fontSize=12;" edge="1" parent="1" source="sQ7jSc39O0Ix88ieAijf-44" target="sQ7jSc39O0Ix88ieAijf-47">
          <mxGeometry relative="1" as="geometry">
            <Array as="points">
              <mxPoint x="120" y="1100" />
            </Array>
          </mxGeometry>
        </mxCell>
        <mxCell id="sQ7jSc39O0Ix88ieAijf-44" value="" style="ellipse;whiteSpace=wrap;html=1;strokeWidth=2;fontSize=12;align=center;" vertex="1" parent="1">
          <mxGeometry x="80" y="1040" width="40" height="40" as="geometry" />
        </mxCell>
        <mxCell id="sQ7jSc39O0Ix88ieAijf-53" style="edgeStyle=orthogonalEdgeStyle;rounded=1;orthogonalLoop=1;jettySize=auto;html=1;entryX=0;entryY=0.5;entryDx=0;entryDy=0;startArrow=none;startFill=0;endArrow=block;endFill=1;strokeWidth=2;fontSize=12;" edge="1" parent="1" source="sQ7jSc39O0Ix88ieAijf-45" target="sQ7jSc39O0Ix88ieAijf-46">
          <mxGeometry relative="1" as="geometry" />
        </mxCell>
        <mxCell id="sQ7jSc39O0Ix88ieAijf-45" value="&lt;div&gt;i1i5&lt;/div&gt;&lt;div&gt;o&lt;br&gt;&lt;/div&gt;" style="ellipse;whiteSpace=wrap;html=1;strokeWidth=2;fontSize=12;align=center;" vertex="1" parent="1">
          <mxGeometry x="140" y="1000" width="40" height="40" as="geometry" />
        </mxCell>
        <mxCell id="sQ7jSc39O0Ix88ieAijf-56" style="rounded=1;orthogonalLoop=1;jettySize=auto;html=1;startArrow=none;startFill=0;endArrow=block;endFill=1;strokeWidth=2;fontSize=12;" edge="1" parent="1" source="sQ7jSc39O0Ix88ieAijf-46" target="sQ7jSc39O0Ix88ieAijf-47">
          <mxGeometry relative="1" as="geometry" />
        </mxCell>
        <mxCell id="sQ7jSc39O0Ix88ieAijf-46" value="&lt;div&gt;i2&lt;/div&gt;&lt;div&gt;o&lt;br&gt;&lt;/div&gt;" style="ellipse;whiteSpace=wrap;html=1;strokeWidth=2;fontSize=12;align=center;" vertex="1" parent="1">
          <mxGeometry x="200" y="1000" width="40" height="40" as="geometry" />
        </mxCell>
        <mxCell id="sQ7jSc39O0Ix88ieAijf-51" style="rounded=1;orthogonalLoop=1;jettySize=auto;html=1;startArrow=none;startFill=0;endArrow=block;endFill=1;strokeWidth=2;fontSize=12;" edge="1" parent="1" source="sQ7jSc39O0Ix88ieAijf-47" target="sQ7jSc39O0Ix88ieAijf-50">
          <mxGeometry relative="1" as="geometry" />
        </mxCell>
        <mxCell id="sQ7jSc39O0Ix88ieAijf-58" style="edgeStyle=none;rounded=1;orthogonalLoop=1;jettySize=auto;html=1;startArrow=none;startFill=0;endArrow=block;endFill=1;strokeWidth=2;fontSize=12;" edge="1" parent="1" source="sQ7jSc39O0Ix88ieAijf-47">
          <mxGeometry relative="1" as="geometry">
            <mxPoint x="380" y="1010" as="targetPoint" />
          </mxGeometry>
        </mxCell>
        <mxCell id="sQ7jSc39O0Ix88ieAijf-47" value="&lt;div&gt;i1i3&lt;/div&gt;&lt;div&gt;oo&lt;/div&gt;" style="ellipse;whiteSpace=wrap;html=1;strokeWidth=2;fontSize=12;align=center;" vertex="1" parent="1">
          <mxGeometry x="220" y="1080" width="40" height="40" as="geometry" />
        </mxCell>
        <mxCell id="sQ7jSc39O0Ix88ieAijf-52" style="rounded=1;orthogonalLoop=1;jettySize=auto;html=1;startArrow=none;startFill=0;endArrow=block;endFill=1;strokeWidth=2;fontSize=12;" edge="1" parent="1" source="sQ7jSc39O0Ix88ieAijf-50" target="sQ7jSc39O0Ix88ieAijf-45">
          <mxGeometry relative="1" as="geometry" />
        </mxCell>
        <mxCell id="sQ7jSc39O0Ix88ieAijf-50" value="i4o" style="ellipse;whiteSpace=wrap;html=1;strokeWidth=2;fontSize=12;align=center;" vertex="1" parent="1">
          <mxGeometry x="280" y="1080" width="40" height="40" as="geometry" />
        </mxCell>
      </root>
    </mxGraphModel>
  </diagram>
</mxfile>
